#tb 0: 1001/30000
#media_type 0: video
#codec_id 0: rawvideo
#dimensions 0: 128x128
#sar 0: 4/3
0,          0,          0,        1,    24576, 0xcdd6878a
0,          1,          1,        1,    24576, 0xa96abbde
0,          2,          2,        1,    24576, 0x35dbbe1c
0,          3,          3,        1,    24576, 0xab7cca53
0,          4,          4,        1,    24576, 0x9530e1d0
0,          5,          5,        1,    24576, 0x21dfe1f3
0,          6,          6,        1,    24576, 0xc79fb646
0,          7,          7,        1,    24576, 0x21dfe1f3
